<svg width="16" height="16" viewBox="0 0 16 16" fill="none" xmlns="http://www.w3.org/2000/svg">
<g clip-path="url(#clip0_769_387)">
<path d="M9.66122 11.0865C9.51422 11.1232 9.35909 11.1088 9.2214 11.0455C7.36953 10.1367 5.87091 8.63993 4.95972 6.7892C4.89224 6.65077 4.87476 6.49325 4.91024 6.3434C4.94573 6.19354 5.032 6.06059 5.1544 5.96713L5.46643 5.73312C5.63204 5.60891 5.76645 5.44785 5.85903 5.2627C5.95161 5.07754 5.9998 4.87337 5.9998 4.66636V2.6662C5.9998 2.31255 5.85932 1.97339 5.60925 1.72332C5.35918 1.47325 5.02001 1.33276 4.66636 1.33276H2.6662C2.31255 1.33276 1.97339 1.47325 1.72332 1.72332C1.47325 1.97339 1.33276 2.31255 1.33276 2.6662C1.33276 5.84906 2.59715 8.90155 4.84776 11.1522C7.09838 13.4028 10.1509 14.6672 13.3337 14.6672C13.6874 14.6672 14.0265 14.5267 14.2766 14.2766C14.5267 14.0265 14.6672 13.6874 14.6672 13.3337V11.3336C14.6672 10.9799 14.5267 10.6407 14.2766 10.3907C14.0265 10.1406 13.6874 10.0001 13.3337 10.0001H11.3336C11.1266 10.0001 10.9224 10.0483 10.7372 10.1409C10.5521 10.2335 10.391 10.3679 10.2668 10.5335L10.0301 10.8435C9.93834 10.9641 9.80823 11.0498 9.66122 11.0865Z" stroke="#D48C27" stroke-width="1.5" stroke-linecap="round"/>
</g>
<defs>
<clipPath id="clip0_769_387">
<rect width="16" height="16" fill="white"/>
</clipPath>
</defs>
</svg>
