<svg width="64" height="64" viewBox="0 0 64 64" fill="none" xmlns="http://www.w3.org/2000/svg">
<path d="M41.3346 36.667V41.8008L45.0681 44.1343M41.3346 8.66479V17.9989M53.0018 21.4992V17.9989C53.0018 16.7611 52.5101 15.574 51.6349 14.6988C50.7597 13.8235 49.5726 13.3318 48.3349 13.3318H15.6669C14.4291 13.3318 13.2421 13.8235 12.3669 14.6988C11.4917 15.574 11 16.7611 11 17.9989V50.6682C11 51.9059 11.4917 53.093 12.3669 53.9683C13.2421 54.8435 14.4291 55.3352 15.6669 55.3352H23.8339M11 27.333H22.6672M22.6672 8.66479V17.9989M55.3352 41.3341C55.3352 49.0667 49.0669 55.3352 41.3346 55.3352C33.6023 55.3352 27.334 49.0667 27.334 41.3341C27.334 33.6015 33.6023 27.333 41.3346 27.333C49.0669 27.333 55.3352 33.6015 55.3352 41.3341Z" stroke="#D48C27" stroke-width="2" stroke-linecap="round"/>
</svg>
