<svg width="77" height="73" viewBox="0 0 77 73" fill="none" xmlns="http://www.w3.org/2000/svg">
<path d="M37.8225 67.1981C31.6913 67.1981 25.6978 65.38 20.5998 61.9737C15.5019 58.5674 11.5286 53.7258 9.18226 48.0613C6.83594 42.3968 6.22204 36.1637 7.41818 30.1503C8.61432 24.1369 11.5668 18.6132 15.9022 14.2778C20.2376 9.9424 25.7613 6.98993 31.7747 5.79379C37.7881 4.59765 44.0212 5.21155 49.6857 7.55787C55.3502 9.90418 60.1917 13.8775 63.5981 18.9755C67.0044 24.0734 68.8225 30.0669 68.8225 36.1981C68.8225 44.4198 65.5564 52.3048 59.7428 58.1184C53.9292 63.9321 46.0442 67.1981 37.8225 67.1981ZM37.8225 10.8345C32.8061 10.8345 27.9023 12.322 23.7312 15.109C19.5602 17.896 16.3093 21.8573 14.3896 26.4919C12.4699 31.1265 11.9676 36.2263 12.9462 41.1463C13.9249 46.0664 16.3406 50.5858 19.8877 54.1329C23.4349 57.6801 27.9543 60.0957 32.8743 61.0744C37.7944 62.0531 42.8942 61.5508 47.5288 59.6311C52.1634 57.7114 56.1246 54.4604 58.9116 50.2894C61.6986 46.1184 63.1861 41.2146 63.1861 36.1981C63.1861 29.4713 60.5139 23.0199 55.7573 18.2633C51.0007 13.5067 44.5494 10.8345 37.8225 10.8345Z" fill="#CE7806"/>
<path d="M37.6572 52C34.4927 52 31.3993 51.0616 28.7681 49.3035C26.1369 47.5454 24.0862 45.0466 22.8752 42.1229C21.6642 39.1993 21.3473 35.9823 21.9647 32.8786C22.582 29.7749 24.1059 26.9239 26.3435 24.6863C28.5812 22.4487 31.4321 20.9248 34.5358 20.3074C37.6395 19.6901 40.8566 20.0069 43.7802 21.2179C46.7038 22.4289 49.2026 24.4797 50.9607 27.1109C52.7188 29.7421 53.6572 32.8355 53.6572 36C53.6572 38.1012 53.2434 40.1817 52.4393 42.1229C51.6352 44.0641 50.4567 45.828 48.9709 47.3137C47.4852 48.7994 45.7214 49.978 43.7802 50.7821C41.839 51.5861 39.7584 52 37.6572 52ZM37.6572 26.4C35.7585 26.4 33.9025 26.963 32.3238 28.0179C30.745 29.0728 29.5146 30.5721 28.788 32.3262C28.0614 34.0804 27.8713 36.0107 28.2417 37.8729C28.6121 39.7351 29.5264 41.4456 30.869 42.7882C32.2116 44.1308 33.9221 45.0451 35.7844 45.4155C37.6466 45.786 39.5768 45.5958 41.331 44.8692C43.0852 44.1426 44.5845 42.9122 45.6393 41.3335C46.6942 39.7548 47.2572 37.8987 47.2572 36C47.2572 33.4539 46.2458 31.0121 44.4455 29.2118C42.6451 27.4114 40.2033 26.4 37.6572 26.4Z" fill="#CE7806"/>
<path d="M38.0457 21C37.3826 21 36.7467 20.6927 36.2779 20.1457C35.809 19.5987 35.5457 18.8569 35.5457 18.0833V2.91667C35.5457 2.14312 35.809 1.40125 36.2779 0.854272C36.7467 0.307291 37.3826 0 38.0457 0C38.7087 0 39.3446 0.307291 39.8134 0.854272C40.2823 1.40125 40.5457 2.14312 40.5457 2.91667V18.0833C40.5457 18.8569 40.2823 19.5987 39.8134 20.1457C39.3446 20.6927 38.7087 21 38.0457 21Z" fill="#CE7806"/>
<path d="M38.0457 73C37.3826 73 36.7467 72.6839 36.2779 72.1213C35.809 71.5587 35.5457 70.7956 35.5457 70V55C35.5457 54.2044 35.809 53.4413 36.2779 52.8787C36.7467 52.3161 37.3826 52 38.0457 52C38.7087 52 39.3446 52.3161 39.8134 52.8787C40.2823 53.4413 40.5457 54.2044 40.5457 55V70C40.5457 70.7956 40.2823 71.5587 39.8134 72.1213C39.3446 72.6839 38.7087 73 38.0457 73Z" fill="#CE7806"/>
<path d="M18.7789 39H3.22108C2.3668 39 1.5475 38.7366 0.943433 38.2678C0.339363 37.7989 0 37.163 0 36.5C0 35.837 0.339363 35.2011 0.943433 34.7322C1.5475 34.2634 2.3668 34 3.22108 34H18.7789C19.6332 34 20.4525 34.2634 21.0566 34.7322C21.6606 35.2011 22 35.837 22 36.5C22 37.163 21.6606 37.7989 21.0566 38.2678C20.4525 38.7366 19.6332 39 18.7789 39Z" fill="#CE7806"/>
<path d="M72.8521 39H56.331C55.4718 39 54.6479 38.7366 54.0404 38.2678C53.4328 37.7989 53.0916 37.163 53.0916 36.5C53.0916 35.837 53.4328 35.2011 54.0404 34.7322C54.6479 34.2634 55.4718 34 56.331 34H72.8521C73.7113 34 74.5352 34.2634 75.1427 34.7322C75.7503 35.2011 76.0916 35.837 76.0916 36.5C76.0916 37.163 75.7503 37.7989 75.1427 38.2678C74.5352 38.7366 73.7113 39 72.8521 39Z" fill="#CE7806"/>
</svg>
